HIERARCHY
ROOT Hips
{
  OFFSET 0 0 0
  CHANNELS 6 Xposition Yposition Zposition Zrotation Yrotation Xrotation
  JOINT LeftThigh
  {
    OFFSET 8.409438 0 -5.917753
    CHANNELS 3 Zrotation Yrotation Xrotation
    JOINT LeftLeg
    {
      OFFSET 0 0 -42.358652
      CHANNELS 3 Zrotation Yrotation Xrotation
      JOINT LeftFoot
      {
        OFFSET 0 0 -39.357303
        CHANNELS 3 Zrotation Yrotation Xrotation
      }
    }
  }
  JOINT RightThigh
  {
    OFFSET -8.409438 0 -5.917753
    CHANNELS 3 Zrotation Yrotation Xrotation
    JOINT RightLeg
    {
      OFFSET 0 0 -42.358652
      CHANNELS 3 Zrotation Yrotation Xrotation
      JOINT RightFoot
      {
        OFFSET 0 0 -39.357303
        CHANNELS 3 Zrotation Yrotation Xrotation
      }
    }
  }
  JOINT SpineLow
  {
    OFFSET 0 0 4.719101
    CHANNELS 3 Zrotation Yrotation Xrotation
    JOINT SpineMid
    {
      OFFSET 0 0 12.899191
      CHANNELS 3 Zrotation Yrotation Xrotation
      JOINT Chest
      {
        OFFSET 0 0 12.899191
        CHANNELS 3 Zrotation Yrotation Xrotation
        JOINT LeftShoulder
        {
          OFFSET 7.550562 1.41573 9.438202
          CHANNELS 3 Zrotation Yrotation Xrotation
          JOINT LeftArm
          {
            OFFSET 9.155056 0 4.247191
            CHANNELS 3 Zrotation Yrotation Xrotation
            JOINT LeftForearm
            {
              OFFSET 0 0 25.771955
              CHANNELS 3 Zrotation Yrotation Xrotation
              JOINT LeftHand
              {
                OFFSET 0 0 25.197169
                CHANNELS 3 Zrotation Yrotation Xrotation
              }
            }
          }
        }
        JOINT RightShoulder
        {
          OFFSET -7.550562 1.41573 9.438202
          CHANNELS 3 Zrotation Yrotation Xrotation
          JOINT RightArm
          {
            OFFSET -9.155056 0 4.247191
            CHANNELS 3 Zrotation Yrotation Xrotation
            JOINT RightForearm
            {
              OFFSET 0 0 -25.771955
              CHANNELS 3 Zrotation Yrotation Xrotation
              JOINT RightHand
              {
                OFFSET 0 0 -25.197169
                CHANNELS 3 Zrotation Yrotation Xrotation
              }
            }
          }
        }
        JOINT Neck
        {
          OFFSET 0 0 15.101124
          CHANNELS 3 Zrotation Yrotation Xrotation
          JOINT Head
          {
            OFFSET 0 0 11.325843
            CHANNELS 3 Zrotation Yrotation Xrotation
            End Site
            {
              OFFSET 0 0 14.157303
            }
          }
        }
      }
    }
  }
}
MOTION
Frames: 16
Frame Time: 0.0
0.0  93.25843  0.0  -2.665693  6.651733  -118.182831  2.855483  -3.388634  8.367435  -10.563442  -1.16812  14.239298  1.705963  -0.150876  3.559701  16.055017  -28.662093  -85.829549  20.162885  35.221292  67.267142  6.806266  2.464045  3.882379  1.685442  -2.374024  2.287864  4.390746  -6.638742  6.103183  4.390745  -6.638742  6.103183  -16.506042  28.291868  13.383105  122.191814  39.841378  -161.67562  -33.758339  18.911835  77.123627  69.225492  -13.346299  -5.229542  7.270316  -10.426619  30.11087  72.836667  65.139684  9.255024  -27.602582  -32.35814  -101.682878  60.820736  1.545561  -9.492096  -7.596133  5.999231  16.566795  -5.860172  4.298173  12.490722  
0.0  93.25843  0.0  -2.760536  6.529463  -118.492722  4.027964  -4.255368  9.123297  -11.876637  -0.802119  13.79316  1.642347  -0.133814  3.515681  16.718154  -29.381335  -85.681102  16.815232  34.490724  57.823956  6.156143  1.830815  3.695816  1.644144  -2.434364  2.279763  4.27336  -6.799202  6.082005  4.27336  -6.799202  6.082005  -16.198377  28.525457  13.6832  122.214456  40.021107  -161.629667  -34.2357  19.158108  76.826004  70.543336  -14.693826  -8.851922  7.242928  -10.404508  30.444692  72.893253  65.193278  9.361689  -27.325965  -32.833402  -101.520317  60.87621  1.418785  -9.391736  -7.459303  6.178003  16.855542  -5.765256  4.432696  12.70719  
0.0  93.25843  0.0  -2.865589  6.333077  -118.541599  3.845393  -4.351023  9.094879  -12.045867  -0.78498  13.827331  1.731966  -0.137218  3.503098  16.986501  -30.246439  -84.736666  13.321521  32.930558  47.299468  5.556782  1.196981  3.809363  1.607746  -2.458919  2.272492  4.172333  -6.862504  6.064626  4.172333  -6.862504  6.064626  -15.950703  28.480399  13.767213  122.138251  40.127757  -161.6556  -34.617457  19.421338  76.514724  70.886031  -14.497698  -8.678989  7.312981  -10.490432  30.523416  72.84576  65.203551  9.348487  -27.072549  -33.199333  -101.408464  60.655267  1.379081  -9.256905  -7.255108  6.219815  16.978544  -5.61455  4.468283  12.797505  
0.0  93.25843  0.0  -2.921895  6.234725  -118.327841  3.501388  -4.31382  8.847614  -12.079245  -0.767711  13.76152  2.178218  -0.213833  3.6274  16.815903  -30.858447  -83.245021  9.746021  30.516748  36.389506  5.246624  0.821559  3.986508  1.567731  -2.428391  2.26588  4.065957  -6.775179  6.052243  4.065958  -6.775179  6.052243  -15.905726  28.172759  13.608232  121.560773  40.196178  -161.783946  -35.495909  19.372486  75.8614  71.129952  -14.40307  -8.439555  7.462326  -10.714281  30.341287  72.581444  65.202226  9.235498  -26.473796  -33.702992  -101.566355  60.511885  1.461524  -9.111268  -7.026966  6.104612  16.935226  -5.439952  4.388553  12.761707  
0.0  93.25843  0.0  -2.920606  6.017196  -118.045122  3.135317  -4.22348  8.52444  -11.811165  -0.7522  13.645412  2.632867  -0.326951  3.733475  16.37109  -30.994743  -81.490711  6.070879  27.406596  25.999711  5.153439  0.688673  4.22679  1.577431  -2.408549  2.246892  4.096172  -6.720754  6.000181  4.096172  -6.720754  6.000181  -16.194973  27.988081  13.47422  121.310998  40.192416  -162.021116  -35.993221  19.610561  75.394009  71.457263  -14.400743  -8.335798  7.357042  -10.846652  30.263319  72.342779  65.160657  9.017639  -25.954902  -33.965555  -101.80378  60.386037  1.473903  -9.046921  -6.937728  6.000898  16.861204  -5.369514  4.31394  12.704509  
0.0  93.25843  0.0  -2.899377  5.560286  -117.904156  3.081997  -4.205874  8.333149  -11.190187  -0.876579  13.580589  2.931655  -0.42823  3.829506  15.8078  -30.411713  -79.67596  2.428226  23.729145  17.071473  4.563295  0.789339  4.79242  1.614207  -2.415593  2.248321  4.196192  -6.743343  5.999925  4.196192  -6.743343  5.999925  -16.542011  27.980508  13.426503  120.975799  40.167537  -162.269026  -37.084815  19.512211  74.642365  71.501103  -14.371836  -7.7275  7.256075  -10.928914  30.325406  72.055151  65.296594  8.8988  -25.427676  -34.144382  -102.122581  60.320508  1.449305  -9.006694  -6.858008  5.956026  16.792142  -5.307828  4.283178  12.651589  
0.0  93.25843  0.0  -2.872287  5.690762  -117.702765  2.871067  -4.053966  8.104693  -10.483117  -1.02302  13.536274  2.942463  -0.448009  3.851883  14.821259  -28.095227  -78.558676  -1.235089  20.099566  10.71799  3.689454  0.490217  4.788486  1.547416  -2.388648  2.23806  4.016509  -6.66324  5.980057  4.016509  -6.66324  5.980057  -16.75047  28.080698  13.503675  120.631537  40.270056  -162.547795  -37.577235  19.651996  74.177323  71.69866  -14.520254  -7.691482  7.233021  -10.960512  30.384393  72.273423  65.350424  9.10312  -25.226519  -34.030934  -102.327152  60.336958  1.391726  -9.014616  -6.737444  5.917506  16.712381  -5.215576  4.258391  12.590288  
0.0  93.25843  0.0  -2.996264  5.96284  -117.490986  3.055784  -4.227659  7.852774  -9.467034  -1.521929  13.789351  2.009843  -0.173904  3.483814  14.537912  -24.61687  -78.449011  -5.162326  18.029948  6.715534  3.680272  -0.686458  4.141452  1.453408  -2.373351  2.2191  3.762189  -6.612084  5.938414  3.762189  -6.612084  5.938413  -16.872105  28.238384  13.678819  120.615151  40.368153  -162.847978  -37.575451  19.916027  73.982961  71.829321  -14.695793  -7.618673  6.988554  -10.855781  30.264384  73.108822  65.206685  9.708917  -25.211114  -33.771022  -102.483178  60.350091  1.32272  -9.127889  -6.615946  5.880769  16.650662  -5.122862  4.234752  12.542528  
0.0  93.25843  0.0  -3.135467  6.454596  -117.256346  3.616752  -4.554838  7.531144  -9.659548  -1.337569  13.670793  1.682813  -0.165206  3.427464  14.751202  -20.909757  -78.650924  -8.734906  16.412022  3.865405  4.218304  -1.272827  3.742913  1.346671  -2.351293  2.184643  3.475112  -6.540694  5.85572  3.475112  -6.540694  5.85572  -16.99936  28.286279  13.85201  120.279007  40.449652  -163.042847  -37.891386  19.991945  73.671913  71.954835  -14.813884  -7.354543  6.851399  -10.813659  30.1675  73.693711  65.007134  10.265656  -25.156034  -33.51798  -102.769027  60.426228  1.201841  -9.212546  -6.622107  5.815032  16.584597  -5.125105  4.185915  12.492605  
0.0  93.25843  0.0  -3.32629  6.853149  -117.039128  4.480786  -5.096076  7.169139  -10.348142  -0.938015  13.484205  1.506978  -0.203924  3.390238  14.09548  -17.748193  -78.005042  -11.113413  14.454719  2.354619  4.228682  -1.477844  3.638453  1.255501  -2.330231  2.158213  3.229753  -6.474  5.793222  3.229753  -6.474  5.793222  -17.062287  28.245446  13.935677  121.274618  40.347531  -163.285266  -36.864487  20.560024  74.136431  72.149049  -14.916852  -7.099892  6.119506  -10.326906  29.444228  74.523519  64.347586  10.703852  -24.488107  -33.735075  -103.53506  60.458379  1.028421  -9.26281  -6.591348  5.676056  16.520585  -5.097795  4.083062  12.443317  
0.0  93.25843  0.0  -3.366902  7.284708  -116.807749  5.356535  -5.552421  6.849138  -11.054473  -0.503676  13.253645  1.278048  -0.186336  3.353602  14.06602  -15.774426  -77.795472  -13.035272  14.374435  2.375266  4.182764  -1.239674  3.579269  1.193906  -2.282023  2.150082  3.065808  -6.336691  5.77877  3.065808  -6.336691  5.77877  -17.215183  28.072804  13.841247  121.253544  40.404625  -163.347716  -36.632924  20.173922  74.216884  72.095197  -14.93479  -7.128922  6.023346  -10.234398  28.922637  74.550385  63.847132  10.848531  -23.911274  -33.817661  -104.306662  60.392446  0.936971  -9.327294  -6.701042  5.527912  16.354744  -5.174642  3.970636  12.318983  
0.0  93.25843  0.0  -3.278776  7.778062  -116.557173  5.820163  -5.745147  6.544478  -11.712338  0.033801  12.978536  1.102794  -0.124369  3.294094  14.021943  -15.750155  -78.355858  -13.077755  16.029611  4.694096  3.935693  -0.982132  3.544481  1.140018  -2.215917  2.138106  2.924818  -6.151036  5.753411  2.924818  -6.151036  5.75341  -17.400731  28.00379  13.659321  121.504477  40.49618  -163.479899  -35.747122  19.541831  74.662866  71.671396  -14.942176  -7.708016  5.604732  -9.986368  28.287075  74.645418  63.256164  10.958259  -23.102078  -34.057202  -105.360306  60.169906  0.774208  -9.488003  -6.848299  5.38355  16.168003  -5.279645  3.86035  12.17929  
0.0  93.25843  0.0  -3.143721  8.075945  -116.521854  6.026589  -5.815746  6.469345  -11.972125  0.363777  12.808277  1.162346  -0.182688  3.261156  13.804037  -18.023295  -78.323223  -11.179142  18.431215  7.957292  3.913971  -0.538012  3.887409  1.109121  -2.169898  2.157232  2.84224  -6.023505  5.810237  2.84224  -6.023505  5.810237  -17.477798  28.016363  13.491819  121.732551  40.624454  -163.539801  -35.216899  18.83417  74.98845  71.184018  -14.820883  -8.211371  5.476859  -9.891871  27.99093  74.609509  62.844207  11.11132  -22.263683  -34.266484  -106.430945  60.147513  0.722388  -9.633614  -6.942702  5.335311  16.003809  -5.347704  3.823452  12.056709  
0.0  93.25843  0.0  -3.033716  8.36377  -116.540814  5.823819  -5.632059  6.381896  -11.855343  0.479414  12.747214  1.250143  -0.243078  3.307241  12.756073  -21.346789  -77.768357  -7.994491  20.700634  12.100966  3.834676  0.083241  4.256846  1.077555  -2.138243  2.195676  2.754956  -5.93585  5.919475  2.754956  -5.93585  5.919475  -17.610291  28.141116  13.225699  122.010718  40.7334  -163.483078  -34.941701  18.175069  75.108186  70.87636  -14.681947  -8.660668  5.332959  -9.809712  27.793629  74.523961  62.713111  11.285069  -21.360904  -34.493623  -107.507572  60.176101  0.656448  -9.762932  -7.053312  5.327046  15.756012  -5.428157  3.817136  11.871925  
0.0  93.25843  0.0  -2.972056  8.546685  -116.334054  5.49529  -5.384473  6.037912  -11.715195  0.488244  12.758634  1.416618  -0.300992  3.325746  11.149889  -24.878585  -76.481692  -4.514594  22.657504  16.236015  4.072135  0.757034  4.461562  1.047262  -2.112233  2.203741  2.673517  -5.862458  5.945111  2.673517  -5.862458  5.945112  -17.686761  28.295056  12.99688  122.597923  40.928342  -163.353151  -34.988706  17.817129  75.02858  70.828325  -14.493457  -8.836247  5.137336  -9.731155  27.649189  75.236975  62.47332  11.835592  -20.991259  -34.38851  -108.25095  60.184874  0.556306  -9.921677  -7.026898  5.336193  15.528421  -5.406452  3.827214  11.701163  
0.0  93.25843  0.0  -2.888973  8.513419  -115.837969  5.320632  -5.103877  5.467308  -11.324347  0.337637  12.81597  1.414306  -0.342706  3.277601  9.39047  -28.254081  -75.092275  -0.826882  24.561982  20.673032  4.665174  1.428493  4.552648  1.052781  -2.078906  2.191917  2.692534  -5.771494  5.913242  2.692534  -5.771494  5.913242  -17.844031  28.343334  12.725823  123.372696  41.190701  -163.046113  -35.178487  17.540147  74.821077  70.946167  -14.259937  -9.158118  4.949535  -9.709978  27.386718  76.321831  62.24113  12.610545  -20.552597  -34.423511  -108.997319  60.495998  0.506997  -9.917651  -7.094878  5.304669  15.176894  -5.453425  3.805786  11.438028  
